<?xml version="1.0" encoding="UTF-8"?>
<svg width="32px" height="32px" viewBox="0 0 32 32" version="1.1" xmlns="http://www.w3.org/2000/svg" xmlns:xlink="http://www.w3.org/1999/xlink">
    <!-- Generator: Sketch 48 (47235) - http://www.bohemiancoding.com/sketch -->
    <title>user-ironman</title>
    <desc>Created with Sketch.</desc>
    <defs></defs>
    <g id="Page-1" stroke="none" stroke-width="1" fill="none" fill-rule="evenodd">
        <g id="user-ironman" fill="#444444">
            <g transform="translate(4.000000, 1.000000)" id="Combined-Shape">
                <path d="M23.0673562,24 L16.9725356,24 C16.7419612,21.9141917 15.0858083,20.2580388 13,20.0274644 L13,17 L13.7142857,17 C17.8654191,17 21.4422009,19.8689402 23.0673562,24 Z M23.4147233,25 C23.793757,26.2511157 24,27.5974583 24,29 L24,31 L0,31 L0,29 C0,27.5974583 0.206243044,26.2511157 0.585276712,25 L8.02746439,25 C8.27618653,27.2499752 10.1837232,29 12.5,29 C14.8162768,29 16.7238135,27.2499752 16.9725356,25 L23.4147233,25 Z M12,17 L12,20.0274644 C9.9141917,20.2580388 8.2580388,21.9141917 8.02746439,24 L0.932643813,24 C2.55779908,19.8689402 6.13458087,17 10.2857143,17 L12,17 Z" fill-rule="nonzero"></path>
                <path d="M18.7324356,14 L16,14 L16,13 L19,13 L19,8 L15,8 L15,6 L19,6 C19,4.34314575 17.6568542,3 16,3 L15,3 L15,5 L13,5 L13,3 L9,3 C7.8954305,3 7,3.8954305 7,5 L7,13 L11,13 L11,12 L17,12 L17,13 L12,13 L12,14 L7.26756439,14 C7.61337381,14.5978014 8.25971764,15 9,15 L17,15 C17.7402824,15 18.3866262,14.5978014 18.7324356,14 Z M10,0 L14,0 C17.3137085,-6.08718376e-16 20,2.6862915 20,6 L20,12 C20,14.209139 18.209139,16 16,16 L9,16 C6.23857625,16 4,13.7614237 4,11 L4,6 C4,2.6862915 6.6862915,6.08718376e-16 10,0 Z M8,6 L13,6 L13,8 L8,8 L8,6 Z M7,9 L8,9 L8,11 L7,11 L7,9 Z"></path>
            </g>
        </g>
    </g>
</svg>