<?xml version="1.0" encoding="UTF-8"?>
<svg width="32px" height="32px" viewBox="0 0 32 32" version="1.1" xmlns="http://www.w3.org/2000/svg" xmlns:xlink="http://www.w3.org/1999/xlink">
    <!-- Generator: Sketch 48 (47235) - http://www.bohemiancoding.com/sketch -->
    <title>user-batman</title>
    <desc>Created with Sketch.</desc>
    <defs></defs>
    <g id="Page-1" stroke="none" stroke-width="1" fill="none" fill-rule="evenodd">
        <g id="user-batman" fill="#444444">
            <g transform="translate(1.000000, 1.000000)" id="Combined-Shape">
                <path d="M16.0853529,31 L15.9146471,31 L13.0853529,31 L3,31 L3,28 C3,21.9248678 7.92486775,17 14,17 L16,17 C22.0751322,17 27,21.9248678 27,28 L27,31 L18.9146471,31 L16.0853529,31 Z M15.0008029,21.0404423 C15.0005352,21.0404642 15.0002676,21.040486 15,21.0405079 L15,22.5 C15,23.3284271 14.3284271,24 13.5,24 C12.6715729,24 12,23.3284271 12,22.5 L12,21.7169653 C10.1865159,22.4397917 9,23.6407171 9,25 C9,26.0898886 9.76281298,27.0779689 11,27.7994187 L11,27.5 C11,26.6715729 11.6715729,26 12.5,26 C13.191734,26 13.7741062,26.4682339 13.9474595,27.1050446 C14.1184541,27.0372568 14.3048761,27 14.5,27 C15.3284271,27 16,27.6715729 16,28.5 L16,29 L16,28.5 C16,27.6715729 16.6715729,27 17.5,27 C17.6951239,27 17.8815459,27.0372568 18.0525405,27.1050446 C18.2258938,26.4682339 18.808266,26 19.5,26 C20.3284271,26 21,26.6715729 21,27.5 L21,27.7994187 C22.237187,27.0779689 23,26.0898886 23,25 C23,23.6407171 21.8134841,22.4397917 20,21.7169653 L20,22.5 C20,23.3284271 19.3284271,24 18.5,24 C17.6715729,24 17,23.3284271 17,22.5 L17,21.0405079 C16.9997324,21.040486 16.9994648,21.0404642 16.9991971,21.0404423 C16.9779757,21.5739768 16.5387394,22 16,22 C15.4612606,22 15.0220243,21.5739768 15.0008029,21.0404423 Z"></path>
                <path d="M19.521468,7 L19,8 L21,8 L21,7 L19.521468,7 Z M15.3244002,7 L13,7 L13,8 L16,8 L15.3244002,7 Z M16.6488004,10 L12,10 L12,12 C12,13.6568542 13.3431458,15 15,15 L19,15 C20.6568542,15 22,13.6568542 22,12 L22,10 L19.042936,10 L18,12 L16.6488004,10 Z M21.7047773,3.47041056 C22.5239149,4.66925798 23,6.10133069 23,7.63958951 L23,12.1802052 C23,14.2898196 21.209139,16 19,16 L12,16 C9.23857625,16 7,13.8622745 7,11.2252565 L7,7.63958951 C7,6.49914157 7.26168369,5.41705962 7.73083902,4.44511337 L7.73083902,0 L9.56692786,2.0319729 C10.993637,0.770808776 12.9025558,0 15,0 C16.751278,0 18.3711246,0.537373214 19.6885876,1.44886904 L21,0 L21.7047773,3.47041056 Z"></path>
                <path d="M2,31 L0,31 L1.77635684e-15,28 C1.19999213e-15,23.293625 2.95567142,19.2775841 7.11206857,17.7068229 C4.03927534,19.6577454 2,23.0907235 2,27 L2,31 Z"></path>
            </g>
        </g>
    </g>
</svg>