<?xml version="1.0" encoding="UTF-8"?>
<svg width="32px" height="32px" viewBox="0 0 32 32" version="1.1" xmlns="http://www.w3.org/2000/svg" xmlns:xlink="http://www.w3.org/1999/xlink">
    <!-- Generator: Sketch 48 (47235) - http://www.bohemiancoding.com/sketch -->
    <title>user-hulk</title>
    <desc>Created with Sketch.</desc>
    <defs></defs>
    <g id="Page-1" stroke="none" stroke-width="1" fill="none" fill-rule="evenodd">
        <g id="user-hulk" fill="#444444">
            <g transform="translate(1.000000, 1.000000)" id="Combined-Shape">
                <path d="M7.46487805,31 L0.535125519,31 C0.194788818,30.4116541 0,29.7285747 0,29 C0,27.9197891 0.428186425,26.9395865 1.1240888,26.2198627 C1.04274025,25.825979 1,25.4179807 1,25 C1,21.6862915 3.6862915,19 7,19 C10.3137085,19 13,21.6862915 13,25 C13,28.1536518 10.5669445,30.739033 7.47554679,30.9814305 C7.47200435,30.9876307 7.46844581,30.9938206 7.46487121,31 Z M10.6075866,31 C12.6404178,29.7751029 14,27.5463251 14,25 C14,21.7881427 11.836832,19.0815203 8.88790265,18.2575393 C10.4152564,17.4544481 12.1545572,17 14,17 L16,17 C22.0751322,17 27,21.9248678 27,28 L27,31 L10.6075866,31 Z"></path>
                <path d="M20,13 L20,12 L19,12 L19,13 L20,13 Z M21,13 L21,14 L14,14 L14,13 L18,13 L18,12 C18,11.4477153 18.4477153,11 19,11 L20,11 C20.5522847,11 21,11.4477153 21,12 L21,13 Z M19,8 L19,7 L20,7 L20,8 L22,8 L22,9 L19,9 L19,8 Z M19.8207657,3.11365887 L20.9142136,4.20710678 L20.2071068,4.91421356 L18.2928932,3 L17.7071068,3 L18.9142136,4.20710678 L18.2071068,4.91421356 L16.2928932,3 L15.7071068,3 L16.9142136,4.20710678 L16.2071068,4.91421356 L14.2928932,3 L14,3 C11.790861,3 10,4.790861 10,7 L10,8.08535285 C9.84361054,8.03007711 9.67531771,8 9.5,8 C8.67157288,8 8,8.67157288 8,9.5 C8,10.3284271 8.67157288,11 9.5,11 C9.67531771,11 9.84361054,10.9699229 10,10.9146471 L10,13 C10,14.1045695 10.8954305,15 12,15 L19,15 C20.6568542,15 22,13.6568542 22,12 L22,6 C22,4.62772804 21.0786282,3.47065398 19.8207657,3.11365887 Z M8.52778699,2 L8,2 L8,1 L9,1 L9,-2.22044605e-16 L10,2.28847549e-17 L10,0.802693172 C10.8825201,0.292182858 11.9071386,2.00755388e-16 13,0 L19,0 C21.209139,-4.05812251e-16 23,1.790861 23,4 L23,12 C23,14.209139 21.209139,16 19,16 L12,16 C9.23857625,16 7,13.7614237 7,11 L7,6 C7,4.46329113 7.57770714,3.06151298 8.52778699,2 Z M15,8 L15,7 L16,7 L16,8 L16,9 L11,9 L11,8 L15,8 Z"></path>
            </g>
        </g>
    </g>
</svg>