<?xml version="1.0" encoding="UTF-8"?>
<svg width="32px" height="32px" viewBox="0 0 32 32" version="1.1" xmlns="http://www.w3.org/2000/svg" xmlns:xlink="http://www.w3.org/1999/xlink">
    <!-- Generator: Sketch 48 (47235) - http://www.bohemiancoding.com/sketch -->
    <title>user-captan</title>
    <desc>Created with Sketch.</desc>
    <defs></defs>
    <g id="Page-1" stroke="none" stroke-width="1" fill="none" fill-rule="evenodd">
        <g id="user-captan">
            <g transform="translate(4.000000, 1.000000)">
                <path d="M10.2857143,17 L13.7142857,17 C19.3949289,17 24,22.372583 24,29 L24,31 L0,31 L0,29 C0,22.372583 4.60507114,17 10.2857143,17 Z M13,27.5 L15.9389263,29.045085 L15.3776413,25.7725425 L17.7552826,23.454915 L14.4694631,22.9774575 L13,20 L11.5305369,22.9774575 L8.24471742,23.454915 L10.6223587,25.7725425 L10.0610737,29.045085 L13,27.5 Z" id="Combined-Shape" fill="#444444" fill-rule="nonzero"></path>
                <path d="M19.418483,5 C19.7934929,5.92643144 20,6.93909956 20,8 L20,12 C20,14.209139 18.209139,16 16,16 L9,16 C6.23857625,16 4,13.7614237 4,11 L4,8 C4,6.93909956 4.20650713,5.92643144 4.58151705,5 L2,5 L2,4 L1,4 L1,3 L0,3 L0,2 L5,2 L5,3 L5.75462905,3 C7.22075007,1.17107503 9.47361542,4.64089318e-16 12,0 C14.3893851,-4.38922914e-16 16.5341111,1.04750977 18,2.70835121 L18,2 L23,2 L23,3 L22,3 L22,4 L21,4 L21,5 L19.418483,5 Z M14,6 L9,6 C7.8954305,6 7,6.8954305 7,8 L7,13 C7,14.1045695 7.8954305,15 9,15 L17,15 C18.1045695,15 19,14.1045695 19,13 L19,8 C19,6.8954305 18.1045695,6 17,6 L15,6 L15,9 L19,9 L19,10 L7,10 L7,9 L14,9 L14,6 Z M14.993089,4.20504815 L15.2072717,4.8843751 L15.8454929,4.8843751 L14.7659255,1.734375 L14.1190505,1.734375 L13.0351562,4.8843751 L13.6733774,4.8843751 L13.8875601,4.20504815 L14.993089,4.20504815 Z M14.0433294,3.70961544 L14.4349159,2.47211541 L14.4478967,2.47211541 L14.8373198,3.70961544 L14.0433294,3.70961544 Z" id="Combined-Shape" fill="#444444"></path>
                <g id="Group" transform="translate(11.000000, 0.000000)"></g>
            </g>
        </g>
    </g>
</svg>