<?xml version="1.0" encoding="UTF-8"?>
<svg width="32px" height="32px" viewBox="0 0 32 32" version="1.1" xmlns="http://www.w3.org/2000/svg" xmlns:xlink="http://www.w3.org/1999/xlink">
    <!-- Generator: Sketch 48 (47235) - http://www.bohemiancoding.com/sketch -->
    <title>user-superwoman</title>
    <desc>Created with Sketch.</desc>
    <defs></defs>
    <g id="Page-1" stroke="none" stroke-width="1" fill="none" fill-rule="evenodd">
        <g id="user-superwoman" fill="#444444">
            <g transform="translate(6.000000, 1.000000)" id="Combined-Shape">
                <path d="M18.7500321,22.1550489 L17.4,21 L17.4,22.5992 L17.4,21 L16.6,21.8 L15.8,21 L12.5736,23.76 L11.8,22.5992 L11.8,21 L10.2,21 L9.4,21.3992 L10.2,21.8 L10.2,22.5992 L9.4256,23.76 L6.2,21 L5.4,21.8 L4.6,21 L0.263352229,24.7103119 C1.29860024,20.2909351 5.26498059,17 10,17 C13.765057,17 17.04413,19.0807452 18.7500321,22.1550489 Z M19.4553329,23.7363892 C19.808311,24.7592215 20,25.8572251 20,27 L20,31 L-2.27373675e-13,31 L-2.27373675e-13,27 C-2.27449492e-13,26.3809149 0.0562569962,25.7749693 0.163937724,25.1869964 C1.31424629,24.0799842 2.87778582,23.3992 4.6,23.3992 L4.6,22.5992 L4.6,23.3992 C5.152,23.3992 5.6888,23.4696 6.2,23.6008 C7.556,23.9504 8.7376,24.732 9.5896,25.7912 L10.2,25.7912 L10.2,25.7992 L9.5968,25.7992 C10.3176,26.6992 10.8008,27.7976 10.9504,29 L11.0496,29 C11.1992,27.7976 11.6824,26.6992 12.404,25.7992 L11.8,25.7992 L11.8,25.7912 L12.4104,25.7912 C13.2624,24.732 14.444,23.9504 15.8,23.6008 L15.8,22.5992 L15.8,23.6008 C16.3112,23.4696 16.848,23.3992 17.4,23.3992 C18.1190018,23.3992 18.8102677,23.5177634 19.4553329,23.7363892 Z"></path>
                <path d="M11,4 L10,4 L11.75,6 L5,6 L5,8.08535285 C4.84361054,8.03007711 4.67531771,8 4.5,8 C3.67157288,8 3,8.67157288 3,9.5 C3,10.3284271 3.67157288,11 4.5,11 C4.67531771,11 4.84361054,10.9699229 5,10.9146471 L5,11 C5,13.209139 6.790861,15 9,15 L14,15 C15.6568542,15 17,13.6568542 17,12 L17,6 L15.25,6 L17,4 L16,4 L11,4 L10,4 L13.5,8 L17,4 L16,4 L13.5,7 L11,4 Z M17,14.6458244 C16.2670555,15.4762451 15.1946925,16 14,16 L6,16 L6,17.5 L3,17.5 L3,16 L2,16 L2,12 L1,12 L1,15 L0,15 L0,6 C-6.76353751e-17,5.44771525 0.44771525,5 1,5 C1,3.34314575 2.34314575,2 4,2 L4,2.10101726 C5.27051704,0.804467211 7.04131183,2.13616202e-15 9,1.77635684e-15 L14,0 C15.4967647,-2.74951219e-16 16.8015185,0.822096638 17.4873574,2.03938603 C18.9124294,2.27219546 20,3.50908987 20,5 L20,12 L18,12 L18,17 L17,17 L17,14.6458244 Z M7,9 L12,9 L12,10 L7,10 L7,9 Z M14,9 L17,9 L17,10 L14,10 L14,9 Z"></path>
            </g>
        </g>
    </g>
</svg>