<?xml version="1.0" encoding="UTF-8"?>
<svg width="32px" height="32px" viewBox="0 0 32 32" version="1.1" xmlns="http://www.w3.org/2000/svg" xmlns:xlink="http://www.w3.org/1999/xlink">
    <!-- Generator: Sketch 48 (47235) - http://www.bohemiancoding.com/sketch -->
    <title>user-flash</title>
    <desc>Created with Sketch.</desc>
    <defs></defs>
    <g id="Page-1" stroke="none" stroke-width="1" fill="none" fill-rule="evenodd">
        <g id="user-flash" fill="#444444">
            <g transform="translate(4.000000, 1.000000)" id="Combined-Shape">
                <path d="M12.9029826,31 L12.9034093,30.9990857 C12.935533,30.9996943 12.9677308,31 13,31 C15.7614237,31 18,28.7614237 18,26 C18,23.7026058 16.4505527,21.7671044 14.3396559,21.1814938 L14.6257232,20.4069372 C14.6460701,20.3662435 14.6596347,20.3255498 14.6596347,20.284856 C14.6596347,20.1288635 14.5239889,20 14.3544318,20 L12.1298417,20 C11.9874136,20 11.8653325,20.0881697 11.831421,20.2170332 L11.5916719,21.2010784 C9.51592781,21.8092473 8,23.7275917 8,26 C8,28.5113955 9.85155241,30.5903378 12.2640479,30.9462175 C12.2602182,30.9642318 12.2583275,30.9822234 12.2582522,31 L0,31 L0,28 C-7.43989126e-16,21.9248678 4.92486775,17 11,17 L13,17 C19.0751322,17 24,21.9248678 24,28 L24,31 L12.9029826,31 Z M12.4339999,30.2486708 C10.334587,29.971682 8.71428571,28.1750618 8.71428571,26 C8.71428571,24.2023031 9.82112739,22.663123 11.3905043,22.0267659 L10.4681814,25.8124198 C10.4478345,25.9073719 10.4749637,26.0091062 10.5563511,26.076929 C10.6106094,26.124405 10.6919969,26.1515342 10.766602,26.1515342 C10.7937312,26.1515342 10.8208603,26.1515342 10.8479895,26.1447519 L13.6015979,25.4597409 L12.4339999,30.2486708 Z M14.0911225,21.8544236 C14.8145725,22.0443211 15.4633352,22.4185758 15.9841649,22.923942 L13.4659522,23.547136 L14.0911225,21.8544236 Z M16.4337337,23.4350389 C16.9688192,24.150208 17.2857143,25.0380966 17.2857143,26 C17.2857143,28.2865905 15.4949874,30.1549343 13.2394258,30.2791392 L16.4337337,23.4350389 Z"></path>
                <path d="M4.73835439,4.42958979 C6.0083497,1.81404332 8.78233438,0 12,0 C15.3806745,0 18.2715751,2.00250012 19.442944,4.83314481 L20.536303,3.7882329 C20.5982411,3.72967636 20.6957155,3.73267061 20.7630852,3.79407966 C20.7763759,3.80920286 20.7896666,3.82432606 20.7975636,3.83800402 C20.8331,3.89955481 20.830493,3.97400906 20.7949946,4.03097861 L19.70745,5.58528485 C19.8980917,6.23893591 20,6.92789789 20,7.63958951 L20,12.1802052 C20,14.2898196 18.209139,16 16,16 L9.00000001,16 C6.23857625,16 4,13.8622745 4,11.2252565 L4,7.63958951 C4,7.57634787 4.0008047,7.51328572 4.00240484,7.45041186 L0.392597302,4.4193183 C0.343563687,4.3734776 0.321775339,4.30223506 0.340170317,4.23358407 C0.34425809,4.21832829 0.35318175,4.20028052 0.36210541,4.18223274 C0.411285768,4.10547958 0.504663854,4.07735911 0.579646961,4.11788964 L3.45999089,5.69496672 L3.48969149,4.0432892 C3.48996532,4.02701148 3.49405309,4.0117557 3.49814087,3.99649993 C3.50938224,3.95454654 3.53690134,3.91286699 3.57177449,3.88950904 C3.62217725,3.85396114 3.68347418,3.85403451 3.73380357,3.87978355 L4.73835439,4.42958979 Z M9,10 L9,12 C9,13.6568542 10.3431458,15 12,15 L16,15 C17.6568542,15 19,13.6568542 19,12 L19,10 L9,10 Z M9,7 L9,8 L13,8 L13,7 L9,7 Z M16,7 L16,8 L19,8 L19,7 L16,7 Z"></path>
            </g>
        </g>
    </g>
</svg>