<?xml version="1.0" encoding="UTF-8"?>
<svg width="32px" height="32px" viewBox="0 0 32 32" version="1.1" xmlns="http://www.w3.org/2000/svg" xmlns:xlink="http://www.w3.org/1999/xlink">
    <!-- Generator: Sketch 48 (47235) - http://www.bohemiancoding.com/sketch -->
    <title>user-spiderman</title>
    <desc>Created with Sketch.</desc>
    <defs></defs>
    <g id="Page-1" stroke="none" stroke-width="1" fill="none" fill-rule="evenodd">
        <g id="user-spiderman" fill="#444444" fill-rule="nonzero">
            <g transform="translate(4.000000, 1.000000)" id="Shape">
                <path d="M11.6,25.4 L11.6,26.2 C11.6,26.7522847 12.0477153,27.2 12.6,27.2 L13.3,27.2 C13.8522847,27.2 14.3,26.7522847 14.3,26.2 L14.3,25.4 L15.2,25.4 L15.2,28.1 L16.1,28.1 L16.1,25.4 L17,25.4 L17,24.5 L14.3,24.5 L14.3,23.6 L17.9,23.6 L17.9,22.7 L14.3,22.7 L14.3,22.25 C14.3,21.5044156 13.6955844,20.9 12.95,20.9 C12.2044156,20.9 11.6,21.5044156 11.6,22.25 L11.6,22.7 L8,22.7 L8,23.6 L11.6,23.6 L11.6,24.5 L8.9,24.5 L8.9,25.4 L9.8,25.4 L9.8,28.1 L10.7,28.1 L10.7,25.4 L11.6,25.4 Z M11,17 L13,17 C19.0751322,17 24,21.9248678 24,28 L24,31 L0,31 L0,28 C-7.43989126e-16,21.9248678 4.92486775,17 11,17 Z M15.2,20 L15.2,22.7 L16.1,22.7 L16.1,20 L15.2,20 Z M9.8,20 L9.8,22.7 L10.7,22.7 L10.7,20 L9.8,20 Z M17,24.5 L17,29 L17.9,29 L17.9,24.5 L17,24.5 Z M8,24.5 L8,29 L8.9,29 L8.9,24.5 L8,24.5 Z M17,20.9 L17,22.7 L17.9,22.7 L17.9,20.9 L17,20.9 Z M8,20.9 L8,22.7 L8.9,22.7 L8.9,20.9 L8,20.9 Z"></path>
                <path d="M15.2426407,16 L10.2573593,16 L9.00000001,16 C6.23857625,16 4,13.8622745 4,11.2252565 L4,7.63958951 C4,3.42036073 7.58172201,0 12,0 C16.418278,0 20,3.42036073 20,7.63958951 L20,12.1802052 C20,14.2898196 18.209139,16 16,16 L15.2426407,16 Z M12.7598917,17.2451731 L13,17.4852814 L13.2401083,17.2451731 L12.7598917,17.2451731 Z M8.89783697,13.3831183 L8.75735933,13.2426407 L13,9 L17.2402809,13.2402809 C19.5802819,10.8977317 19.5802819,7.10226829 17.2402809,4.75971915 L13,9 L8.75735933,4.75735932 L8.89783685,4.61688179 C8.8488488,4.66273248 8.80044192,4.70955832 8.75264092,4.75735931 C6.40949517,7.10050507 6.40949517,10.8994949 8.75264092,13.2426407 C8.80044195,13.2904417 8.84884888,13.3372676 8.89783697,13.3831183 Z"></path>
            </g>
        </g>
    </g>
</svg>