<?xml version="1.0" encoding="UTF-8"?>
<svg width="32px" height="32px" viewBox="0 0 32 32" version="1.1" xmlns="http://www.w3.org/2000/svg" xmlns:xlink="http://www.w3.org/1999/xlink">
    <!-- Generator: Sketch 48 (47235) - http://www.bohemiancoding.com/sketch -->
    <title>user-green</title>
    <desc>Created with Sketch.</desc>
    <defs></defs>
    <g id="Page-1" stroke="none" stroke-width="1" fill="none" fill-rule="evenodd">
        <g id="user-green" fill="#444444">
            <g transform="translate(4.000000, 0.000000)" id="Combined-Shape">
                <path d="M12,28.9645556 C10.4671544,28.7452992 9.25470081,27.5328456 9.03544443,26 L10.0500091,26 C10.2488503,26.9795652 11.0204348,27.7511497 12,27.9499909 L12,28.9645556 Z M13,28.9645556 L13,27.9499909 C13.9795652,27.7511497 14.7511497,26.9795652 14.9499909,26 L15.9645556,26 C15.7452992,27.5328456 14.5328456,28.7452992 13,28.9645556 Z M12,22.0354444 L12,23.0500091 C11.0204348,23.2488503 10.2488503,24.0204348 10.0500091,25 L9.03544443,25 C9.25470081,23.4671544 10.4671544,22.2547008 12,22.0354444 Z M13,22.0354444 C14.5328456,22.2547008 15.7452992,23.4671544 15.9645556,25 L14.9499909,25 C14.7511497,24.0204348 13.9795652,23.2488503 13,23.0500091 L13,22.0354444 Z M11,18 L13,18 C19.0751322,18 24,22.9248678 24,29 L24,32 L0,32 L0,29 C-7.43989126e-16,22.9248678 4.92486775,18 11,18 Z M12.5,30 C14.9852814,30 17,27.9852814 17,25.5 C17,23.0147186 14.9852814,21 12.5,21 C10.0147186,21 8,23.0147186 8,25.5 C8,27.9852814 10.0147186,30 12.5,30 Z"></path>
                <path d="M7,11.9146471 L7,12 L8,12 L8,7 L7,7 L7,9.08535285 C6.84361054,9.03007711 6.67531771,9 6.5,9 C5.67157288,9 5,9.67157288 5,10.5 C5,11.3284271 5.67157288,12 6.5,12 C6.67531771,12 6.84361054,11.9699229 7,11.9146471 Z M19.742625,4.41220802 C19.9095645,4.91106197 20,5.44496981 20,6 L20,13 C20,15.209139 18.209139,17 16,17 L11,17 C7.13400675,17 4,13.8659932 4,10 L4,8 C4,4.13400675 7.13400675,1 11,1 L15,1 C16.3386019,1 17.5543435,1.52602777 18.451789,2.38264765 C18.9076235,2.20978432 19.2764472,1.82791275 19.412,1.3208 C19.472,1.0988 19.48,0.8738 19.445,0.6608 C19.907,1.0398 20.131,1.6668 19.967,2.2818 C19.8495901,2.72051463 19.5571743,3.06581951 19.1849382,3.26284968 C19.206548,3.29582273 19.2277787,3.32906663 19.248624,3.36257519 C19.7687032,3.34208689 20.2670634,3.0632065 20.547,2.5788 C20.662,2.3788 20.728,2.1648 20.749,1.9508 C21.098,2.4358 21.152,3.0998 20.834,3.6508 C20.5914968,4.0704312 20.1850799,4.33551529 19.742625,4.41220802 Z M7,12 C7,14.209139 8.790861,16 11,16 L16,16 C17.6568542,16 19,14.6568542 19,13 L19,12 L7,12 Z M9,5 C7.8954305,5 7,5.8954305 7,7 L19,7 C19,5.8954305 18.1045695,5 17,5 L9,5 Z M10,9 L10,10 L14,10 L14,9 L10,9 Z M16,9 L16,10 L19,10 L19,9 L16,9 Z"></path>
            </g>
        </g>
    </g>
</svg>