<?xml version="1.0" encoding="UTF-8"?>
<svg width="32px" height="32px" viewBox="0 0 32 32" version="1.1" xmlns="http://www.w3.org/2000/svg" xmlns:xlink="http://www.w3.org/1999/xlink">
    <!-- Generator: Sketch 48 (47235) - http://www.bohemiancoding.com/sketch -->
    <title>user-superman</title>
    <desc>Created with Sketch.</desc>
    <defs></defs>
    <g id="Page-1" stroke="none" stroke-width="1" fill="none" fill-rule="evenodd">
        <g id="user-superman" fill="#444444">
            <g transform="translate(1.000000, 2.000000)" id="Combined-Shape">
                <path d="M15.975965,28.811445 C15.1573121,28.9831381 14.3574913,28.8350799 13.5765024,28.3672704 L10.8565776,25.653928 C11.5543792,25.8798438 12.5632165,26.1179439 14.2303665,26.419403 C16.0861411,26.7524717 17.0757235,26.7696022 17.3828863,27.4046491 L15.975965,28.811445 Z M16.2250234,30 L16.2267668,29.9727274 L23.5923878,22.6071064 L23.529228,22.5439466 L23.5376408,22.5355339 L20.0021069,19 L20,19.0021069 L20,19 L10,19 L10,19.0255337 L7.11632047,21.9092132 L7.10710688,21.8999996 L6.4000001,22.6071064 L13.7928937,30 L3,30 L3,27 C3,20.9248678 7.92486775,16 14,16 L16,16 C22.0751322,16 27,20.9248678 27,27 L27,30 L16.2250234,30 Z M8.29712563,22.1426216 C8.15274337,22.3735187 8.06522834,22.607447 8.03111641,22.8353046 L7.81848145,22.6231842 L7.82438055,22.6172733 L7.82342725,22.61632 L8.29712563,22.1426216 Z M9.17346979,21.2654854 L10.4419921,19.9944255 L19.587204,19.9944255 L19.5948186,20.0020402 C19.4513775,20.0122552 19.350921,20.0608288 19.2732984,20.1477612 C19.0387435,20.4268657 19.0094241,20.4597015 18.8041885,20.5746269 C16.9570681,20.1970149 15.9602094,20.0328358 14.4942408,20.0328358 C11.922014,20.0328358 10.1936193,20.5624725 9.17346979,21.2654854 Z M20.1780479,20.5852775 L22.1903534,22.5976105 L19.4800976,25.3076247 C18.6365726,24.6426395 16.6553537,24.1389972 15.4617801,23.9567164 C13.321466,23.6283582 11.2984293,23.1686567 11.2984293,22.1671642 C11.2984293,21.1985075 12.8230366,20.6074627 14.5235602,20.6074627 C16.634555,20.6074627 18.686911,21.6253731 19.4198953,22.4626866 C19.8596859,22.9716418 19.8890052,23.0208955 20.3287958,23.0208955 C20.6513089,23.0208955 20.6806283,22.8238806 20.6806283,22.8074627 C20.6806283,22.7746269 20.6513089,22.5940299 20.6219895,22.5447761 L20.1780479,20.5852775 Z"></path>
                <path d="M10,9.91464715 L10,10 C10,12.209139 11.790861,14 14,14 L19,14 C20.6568542,14 22,12.6568542 22,11 L22,6 C22,4.34314575 20.6568542,3 19,3 L13,3 C11.3431458,3 10,4.34314575 10,6 L10,7.08535285 C9.84361054,7.03007711 9.67531771,7 9.5,7 C8.67157288,7 8,7.67157288 8,8.5 C8,9.32842712 8.67157288,10 9.5,10 C9.67531771,10 9.84361054,9.96992289 10,9.91464715 Z M14,0 L19,0 C21.209139,-4.05812251e-16 23,1.790861 23,4 L23,11 C23,13.209139 21.209139,15 19,15 L14,15 C10.1340068,15 7,11.8659932 7,8 L7,7 C7,3.13400675 10.1340068,7.10171439e-16 14,0 Z M13,7 L16,7 L16,8 L13,8 L13,7 Z M19,7 L21,7 L21,8 L19,8 L19,7 Z"></path>
                <path d="M18.9233661,2 C18.8342707,2.19700957 18.7846732,2.41570291 18.7846732,2.64598036 C18.7846732,3.51270646 19.4872935,4.21532679 20.3540196,4.21532679 C20.5842971,4.21532679 20.8029904,4.16572929 21,4.07663393 C20.7537552,4.62113569 20.2057951,5 19.5693464,5 C18.7026203,5 18,4.29737967 18,3.43065357 C18,2.79420492 18.3788643,2.24624478 18.9233661,2 Z"></path>
                <path d="M2,30 L0,30 L1.77635684e-15,27 C1.19999213e-15,22.293625 2.95567142,18.2775841 7.11206857,16.7068229 C4.03927534,18.6577454 2,22.0907235 2,26 L2,30 Z"></path>
            </g>
        </g>
    </g>
</svg>