<?xml version="1.0" encoding="UTF-8"?>
<svg width="32px" height="32px" viewBox="0 0 32 32" version="1.1" xmlns="http://www.w3.org/2000/svg" xmlns:xlink="http://www.w3.org/1999/xlink">
    <!-- Generator: Sketch 48 (47235) - http://www.bohemiancoding.com/sketch -->
    <title>user-thor</title>
    <desc>Created with Sketch.</desc>
    <defs></defs>
    <g id="Page-1" stroke="none" stroke-width="1" fill="none" fill-rule="evenodd">
        <g id="user-thor" fill="#444444">
            <g transform="translate(1.000000, 1.000000)">
                <path d="M14,17 L16,17 C22.0751322,17 27,21.9248678 27,28 L27,31 L3,31 L3,28 C3,21.9248678 7.92486775,17 14,17 Z M11,26 C12.6568542,26 14,24.6568542 14,23 C14,21.3431458 12.6568542,20 11,20 C9.34314575,20 8,21.3431458 8,23 C8,24.6568542 9.34314575,26 11,26 Z M20,26 C21.6568542,26 23,24.6568542 23,23 C23,21.3431458 21.6568542,20 20,20 C18.3431458,20 17,21.3431458 17,23 C17,24.6568542 18.3431458,26 20,26 Z M20,25 C18.8954305,25 18,24.1045695 18,23 C18,21.8954305 18.8954305,21 20,21 C21.1045695,21 22,21.8954305 22,23 C22,24.1045695 21.1045695,25 20,25 Z M11,25 C9.8954305,25 9,24.1045695 9,23 C9,21.8954305 9.8954305,21 11,21 C12.1045695,21 13,21.8954305 13,23 C13,24.1045695 12.1045695,25 11,25 Z M18.5,30 C19.3284271,30 20,29.3284271 20,28.5 C20,27.6715729 19.3284271,27 18.5,27 C17.6715729,27 17,27.6715729 17,28.5 C17,29.3284271 17.6715729,30 18.5,30 Z M18.5,29 C18.2238576,29 18,28.7761424 18,28.5 C18,28.2238576 18.2238576,28 18.5,28 C18.7761424,28 19,28.2238576 19,28.5 C19,28.7761424 18.7761424,29 18.5,29 Z M12.5,30 C13.3284271,30 14,29.3284271 14,28.5 C14,27.6715729 13.3284271,27 12.5,27 C11.6715729,27 11,27.6715729 11,28.5 C11,29.3284271 11.6715729,30 12.5,30 Z M12.5,29 C12.2238576,29 12,28.7761424 12,28.5 C12,28.2238576 12.2238576,28 12.5,28 C12.7761424,28 13,28.2238576 13,28.5 C13,28.7761424 12.7761424,29 12.5,29 Z" id="Combined-Shape"></path>
                <path d="M17,7 L16,7 L16,6 L12,6 C10.8954305,6 10,6.8954305 10,8 L10,8.08535285 C9.84361054,8.03007711 9.67531771,8 9.5,8 C8.67157288,8 8,8.67157288 8,9.5 C8,10.3284271 8.67157288,11 9.5,11 C9.67531771,11 9.84361054,10.9699229 10,10.9146471 L10,11 C10,13.209139 11.790861,15 14,15 L19,15 C20.6568542,15 22,13.6568542 22,12 L22,6 L20,6 L20,7 L19,7 L19,8 L17,8 L17,7 Z M5.12936996,3.54230688 L4.42269393,2.81052243 L5.12936996,2.12809332 L4.42269393,1.39630887 L5.86137353,0.00699212869 L8.9246489,3.17910663 C10.0931273,1.94934678 11.7038743,1.14382948 13.5020037,1.0174409 C13.7029168,0.425752236 14.2630855,0 14.9226939,0 C15.5788341,0 16.1365775,0.421286736 16.3401852,1.00812128 C20.0481815,1.18555302 23,4.24805944 23,8 L23,12 C23,14.209139 21.209139,16 19,16 L11,16 L11,17.5 L8,17.5 L8,16 L7,16 L7,8 C7,7.65053796 7.02560812,7.30705701 7.07505021,6.97133133 L4.42269393,4.22473599 L5.12936996,3.54230688 Z M12,9 L17,9 L17,10 L12,10 L12,9 Z M19,9 L22,9 L22,10 L19,10 L19,9 Z" id="Combined-Shape"></path>
                <path d="M23.3871645,6.24143216 C23.1273773,4.81050577 22.4325979,3.53114055 21.44478,2.54529002 L23.8959858,0.00699212869 L25.3346654,1.39630887 L24.6279894,2.12809332 L25.3346654,2.81052243 L24.6279894,3.54230688 L25.3346654,4.22473599 L23.3871645,6.24143216 Z" id="Rectangle"></path>
                <path d="M2,31 L0,31 L1.77635684e-15,28 C1.19999213e-15,23.293625 2.95567142,19.2775841 7.11206857,17.7068229 C4.03927534,19.6577454 2,23.0907235 2,27 L2,31 Z" id="Combined-Shape"></path>
            </g>
        </g>
    </g>
</svg>